<?xml version="1.0" encoding="utf-8"?>
<!-- Generator: Adobe Illustrator 24.1.1, SVG Export Plug-In . SVG Version: 6.00 Build 0)  -->
<svg version="1.1" id="Layer_1" xmlns="http://www.w3.org/2000/svg" xmlns:xlink="http://www.w3.org/1999/xlink" x="0px" y="0px"
	 viewBox="0 0 512 512" style="enable-background:new 0 0 512 512;" xml:space="preserve">
<style type="text/css">
	.st0{fill:#333333;}
</style>
<g id="XMLID_8_">
	<path id="XMLID_15_" class="st0" d="M81.3,232.9H35.1v-46.3H0v139.6h35.1V268h46.3v58.2h35.1V186.6H81.3
		C81.3,186.6,81.3,232.9,81.3,232.9z M139.6,220.9h35.1v104.5h35.1V220.9h35.1v-35.1H139.6V220.9z M268,220.9h35.1v104.5h35.1V220.9
		h35.1v-35.1H268V220.9z M476.9,186.6h-81.3v139.6h35.1v-46.3h46.3c18.3,0,35.1-16,35.1-35.1v-23.1
		C512,202.6,495.3,186.6,476.9,186.6z M476.9,244h-46.3v-23.1h46.3V244z"/>
</g>
</svg>
